<svg width="22" height="23" viewBox="0 0 22 23" fill="none" xmlns="http://www.w3.org/2000/svg">
<path d="M5.31965 3.38555H4.32374L4.31966 4.38145L4.28515 12.7968H1.03857V1H10.1792C14.2798 1 16.9385 2.12656 18.5797 3.83376C20.2288 5.54906 21 8.00537 21 10.9646C21 13.9238 20.2288 16.3802 18.5797 18.0954C16.9385 19.8027 14.2798 20.9292 10.1792 20.9292H9.85075V18.5437H10.1525C12.4714 18.5437 14.4083 17.9046 15.7629 16.5462C17.1171 15.1883 17.7456 13.2558 17.7456 10.9646C17.7456 8.67344 17.1171 6.74093 15.7629 5.38301C14.4083 4.02457 12.4714 3.38555 10.1525 3.38555H5.31965Z" stroke="#22B573" stroke-width="2"/>
<path d="M1 21.0014V18.6025H4.27662V21.0014H1Z" stroke="#22B573" stroke-width="2"/>
</svg>
