<svg width="32" height="31" viewBox="0 0 32 31" fill="none" xmlns="http://www.w3.org/2000/svg">
<path d="M28 2C28.5304 2 29.0391 2.21071 29.4142 2.58579C29.7893 2.96086 30 3.46957 30 4V20C30 20.5304 29.7893 21.0391 29.4142 21.4142C29.0391 21.7893 28.5304 22 28 22H8.828C7.76722 22.0002 6.74997 22.4218 6 23.172L2 27.172V4C2 3.46957 2.21071 2.96086 2.58579 2.58579C2.96086 2.21071 3.46957 2 4 2H28ZM4 0C2.93913 0 1.92172 0.421427 1.17157 1.17157C0.421427 1.92172 0 2.93913 0 4L0 29.586C4.20298e-05 29.7839 0.0587852 29.9773 0.168795 30.1418C0.278804 30.3062 0.435134 30.4344 0.617999 30.5099C0.800863 30.5855 1.00204 30.6052 1.19607 30.5664C1.3901 30.5276 1.56826 30.4321 1.708 30.292L7.414 24.586C7.78899 24.2109 8.29761 24.0001 8.828 24H28C29.0609 24 30.0783 23.5786 30.8284 22.8284C31.5786 22.0783 32 21.0609 32 20V4C32 2.93913 31.5786 1.92172 30.8284 1.17157C30.0783 0.421427 29.0609 0 28 0L4 0Z" fill="#22B573"/>
<path d="M10 12C10 12.5304 9.78929 13.0391 9.41421 13.4142C9.03914 13.7893 8.53043 14 8 14C7.46957 14 6.96086 13.7893 6.58579 13.4142C6.21071 13.0391 6 12.5304 6 12C6 11.4696 6.21071 10.9609 6.58579 10.5858C6.96086 10.2107 7.46957 10 8 10C8.53043 10 9.03914 10.2107 9.41421 10.5858C9.78929 10.9609 10 11.4696 10 12ZM18 12C18 12.5304 17.7893 13.0391 17.4142 13.4142C17.0391 13.7893 16.5304 14 16 14C15.4696 14 14.9609 13.7893 14.5858 13.4142C14.2107 13.0391 14 12.5304 14 12C14 11.4696 14.2107 10.9609 14.5858 10.5858C14.9609 10.2107 15.4696 10 16 10C16.5304 10 17.0391 10.2107 17.4142 10.5858C17.7893 10.9609 18 11.4696 18 12ZM26 12C26 12.5304 25.7893 13.0391 25.4142 13.4142C25.0391 13.7893 24.5304 14 24 14C23.4696 14 22.9609 13.7893 22.5858 13.4142C22.2107 13.0391 22 12.5304 22 12C22 11.4696 22.2107 10.9609 22.5858 10.5858C22.9609 10.2107 23.4696 10 24 10C24.5304 10 25.0391 10.2107 25.4142 10.5858C25.7893 10.9609 26 11.4696 26 12Z" fill="#22B573"/>
</svg>
