<svg width="44" height="44" viewBox="0 0 44 44" fill="none" xmlns="http://www.w3.org/2000/svg">
<path d="M21.7304 0.889893C9.93489 0.889893 0.373047 10.4517 0.373047 22.2472C0.373047 34.0427 9.93489 43.6045 21.7304 43.6045C33.5258 43.6045 43.0877 34.0427 43.0877 22.2472C43.0877 10.4517 33.5258 0.889893 21.7304 0.889893ZM30.4179 18.3851C30.4268 18.5675 30.429 18.7499 30.429 18.9279C30.429 24.4897 26.1998 30.8991 18.4622 30.8991C16.1759 30.9029 13.9371 30.2463 12.015 29.0081C12.342 29.0482 12.678 29.0637 13.0183 29.0637C14.9895 29.0637 16.8026 28.3941 18.242 27.2639C17.3648 27.2467 16.5149 26.9563 15.8106 26.433C15.1064 25.9098 14.5829 25.1799 14.3131 24.3451C14.9431 24.4649 15.592 24.4398 16.2108 24.2717C15.2588 24.0792 14.4026 23.5633 13.7875 22.8115C13.1723 22.0598 12.8362 21.1184 12.8359 20.1471V20.0959C13.4032 20.4096 14.0528 20.6009 14.7425 20.6232C13.8499 20.029 13.2181 19.1163 12.9762 18.0717C12.7343 17.0271 12.9006 15.9296 13.441 15.0035C14.4977 16.3027 15.8154 17.3656 17.3089 18.1233C18.8023 18.8809 20.4383 19.3165 22.1108 19.4018C21.8981 18.4992 21.9897 17.5517 22.3711 16.7065C22.7525 15.8614 23.4025 15.1659 24.22 14.7282C25.0374 14.2906 25.9766 14.1353 26.8915 14.2864C27.8063 14.4376 28.6456 14.8868 29.2788 15.5641C30.2203 15.3779 31.1231 15.0326 31.9485 14.543C31.6347 15.5177 30.9778 16.3454 30.0997 16.8723C30.9337 16.7718 31.748 16.5476 32.5158 16.2071C31.9518 17.0522 31.2413 17.7898 30.4179 18.3851V18.3851Z" fill="#22B573"/>
</svg>
