<svg width="44" height="44" viewBox="0 0 44 44" fill="none" xmlns="http://www.w3.org/2000/svg">
<path d="M28.9101 22.2472C28.9101 24.0173 28.207 25.7149 26.9553 26.9665C25.7037 28.2182 24.0061 28.9214 22.236 28.9214C20.4659 28.9214 18.7683 28.2182 17.5166 26.9665C16.265 25.7149 15.5618 24.0173 15.5618 22.2472C15.5618 21.8668 15.6019 21.4952 15.6708 21.1348H13.3371V30.027C13.3371 30.6455 13.8376 31.1461 14.4561 31.1461H30.018C30.3144 31.1455 30.5985 31.0273 30.8079 30.8175C31.0172 30.6077 31.1348 30.3234 31.1348 30.027V21.1348H28.8011C28.8701 21.4952 28.9101 21.8668 28.9101 22.2472V22.2472ZM22.236 26.6966C22.8204 26.6965 23.3991 26.5812 23.939 26.3574C24.4789 26.1336 24.9695 25.8057 25.3827 25.3923C25.7958 24.9789 26.1235 24.4882 26.3471 23.9482C26.5706 23.4082 26.6855 22.8294 26.6854 22.245C26.6853 21.6605 26.57 21.0818 26.3462 20.5419C26.1224 20.002 25.7945 19.5115 25.3811 19.0983C24.9677 18.6851 24.477 18.3574 23.937 18.1339C23.397 17.9104 22.8182 17.7954 22.2337 17.7955C21.0534 17.7958 19.9215 18.265 19.0871 19.0999C18.2526 19.9347 17.784 21.0668 17.7843 22.2472C17.7846 23.4276 18.2538 24.5595 19.0886 25.3939C19.9235 26.2283 21.0556 26.6969 22.236 26.6966V26.6966ZM27.5753 17.5753H30.2427C30.4199 17.5753 30.5899 17.505 30.7155 17.3799C30.841 17.2548 30.9118 17.0851 30.9124 16.9079V14.2404C30.9124 14.0628 30.8418 13.8925 30.7162 13.7669C30.5907 13.6413 30.4203 13.5708 30.2427 13.5708H27.5753C27.3977 13.5708 27.2274 13.6413 27.1018 13.7669C26.9762 13.8925 26.9057 14.0628 26.9057 14.2404V16.9079C26.9079 17.2749 27.2082 17.5753 27.5753 17.5753V17.5753ZM22.236 0.889893C16.5717 0.889893 11.1393 3.14003 7.13407 7.1453C3.1288 11.1506 0.878662 16.5829 0.878662 22.2472C0.878662 27.9115 3.1288 33.3438 7.13407 37.3491C11.1393 41.3544 16.5717 43.6045 22.236 43.6045C25.0406 43.6045 27.8179 43.0521 30.4091 41.9788C33.0002 40.9055 35.3547 39.3323 37.3379 37.3491C39.3211 35.3659 40.8942 33.0115 41.9675 30.4203C43.0408 27.8291 43.5933 25.0519 43.5933 22.2472C43.5933 19.4425 43.0408 16.6653 41.9675 14.0741C40.8942 11.4829 39.3211 9.12851 37.3379 7.1453C35.3547 5.16209 33.0002 3.58893 30.4091 2.51562C27.8179 1.44232 25.0406 0.889893 22.236 0.889893V0.889893ZM33.3596 30.8991C33.3596 32.2584 32.2472 33.3708 30.8879 33.3708H13.584C12.2247 33.3708 11.1124 32.2584 11.1124 30.8991V13.5953C11.1124 12.236 12.2247 11.1236 13.584 11.1236H30.8879C32.2472 11.1236 33.3596 12.236 33.3596 13.5953V30.8991V30.8991Z" fill="#22B573"/>
</svg>
