<svg width="32" height="33" viewBox="0 0 32 33" fill="none" xmlns="http://www.w3.org/2000/svg">
<path fill-rule="evenodd" clip-rule="evenodd" d="M23.22 19.6761C22.8227 19.4774 20.8747 18.5201 20.512 18.3867C20.1493 18.2547 19.8853 18.1894 19.62 18.5867C19.356 18.9814 18.5973 19.8747 18.3667 20.1387C18.1347 20.4041 17.904 20.4361 17.508 20.2387C17.112 20.0387 15.8347 19.6214 14.3213 18.2721C13.144 17.2214 12.348 15.9241 12.1173 15.5267C11.8867 15.1307 12.092 14.9161 12.2907 14.7187C12.4693 14.5414 12.6867 14.2561 12.8853 14.0254C13.084 13.7934 13.1493 13.6281 13.2813 13.3627C13.4147 13.0987 13.348 12.8681 13.248 12.6694C13.1493 12.4707 12.3573 10.5201 12.0267 9.72672C11.7053 8.95472 11.3787 9.06005 11.136 9.04672C10.904 9.03605 10.64 9.03339 10.376 9.03339C10.112 9.03339 9.68267 9.13205 9.32 9.52939C8.956 9.92539 7.93333 10.8841 7.93333 12.8347C7.93333 14.7841 9.352 16.6681 9.55067 16.9334C9.74933 17.1974 12.344 21.2001 16.3187 22.9161C17.2653 23.3241 18.0027 23.5681 18.5773 23.7494C19.5267 24.0521 20.3907 24.0094 21.0733 23.9067C21.8333 23.7934 23.4173 22.9481 23.748 22.0227C24.0773 21.0974 24.0773 20.3041 23.9787 20.1387C23.88 19.9734 23.616 19.8747 23.2187 19.6761H23.22ZM15.9907 29.5467H15.9853C13.6246 29.5472 11.3072 28.9125 9.276 27.7094L8.796 27.4241L3.80667 28.7334L5.13867 23.8694L4.82533 23.3707C3.50552 21.2699 2.80706 18.8384 2.81067 16.3574C2.81333 9.09072 8.72533 3.17872 15.996 3.17872C19.516 3.17872 22.8253 4.55205 25.3133 7.04272C26.5405 8.26483 27.5132 9.71814 28.175 11.3186C28.8369 12.919 29.1749 14.6348 29.1693 16.3667C29.1667 23.6334 23.2547 29.5467 15.9907 29.5467ZM27.2067 5.15072C25.7376 3.67195 23.9896 2.49944 22.0641 1.70112C20.1386 0.902806 18.0738 0.494565 15.9893 0.500055C7.25067 0.500055 0.136 7.61339 0.133333 16.3561C0.129284 19.1384 0.859166 21.8726 2.24933 24.2827L0 32.5001L8.40533 30.2947C10.7305 31.5616 13.3361 32.2253 15.984 32.2254H15.9907C24.7293 32.2254 31.844 25.1121 31.8467 16.3681C31.8531 14.2844 31.4463 12.2202 30.6499 10.2948C29.8535 8.36934 28.6832 6.62095 27.2067 5.15072Z" fill="#22B573"/>
</svg>