<svg width="44" height="44" viewBox="0 0 44 44" fill="none" xmlns="http://www.w3.org/2000/svg">
<path d="M21.7416 0.889893C9.94612 0.889893 0.384277 10.4517 0.384277 22.2472C0.384277 34.0427 9.94612 43.6045 21.7416 43.6045C33.537 43.6045 43.0989 34.0427 43.0989 22.2472C43.0989 10.4517 33.537 0.889893 21.7416 0.889893ZM16.5135 31.0994H12.1886V17.1815H16.5135V31.0994ZM14.3244 15.4729C12.9584 15.4729 12.0752 14.5052 12.0752 13.3083C12.0752 12.0869 12.9851 11.1481 14.38 11.1481C15.7749 11.1481 16.6292 12.0869 16.6559 13.3083C16.6559 14.5052 15.7749 15.4729 14.3244 15.4729ZM32.309 31.0994H27.9841V23.3863C27.9841 21.5909 27.3568 20.3718 25.7928 20.3718C24.5981 20.3718 23.8884 21.1971 23.5748 21.9914C23.4591 22.2739 23.4301 22.6743 23.4301 23.0726V31.0971H19.1031V21.6198C19.1031 19.8823 19.0474 18.4296 18.9896 17.1793H22.7472L22.9452 19.1126H23.0319C23.6014 18.2049 24.9963 16.8656 27.3301 16.8656C30.1755 16.8656 32.309 18.7722 32.309 22.8701V31.0994V31.0994Z" fill="#22B573"/>
</svg>
