<svg width="30" height="28" viewBox="0 0 30 28" fill="none" xmlns="http://www.w3.org/2000/svg">
<path d="M28.5779 13.7812L16.5029 1.71246L15.6935 0.903082C15.5091 0.719883 15.2597 0.617065 14.9997 0.617065C14.7398 0.617065 14.4904 0.719883 14.306 0.903082L1.42161 13.7812C1.23265 13.9694 1.08331 14.1936 0.982402 14.4405C0.881497 14.6874 0.831076 14.952 0.834114 15.2187C0.846614 16.3187 1.76224 17.1968 2.86224 17.1968H4.19036V27.375H25.8091V17.1968H27.1654C27.6997 17.1968 28.2029 16.9875 28.581 16.6093C28.7672 16.4237 28.9147 16.2031 29.015 15.9601C29.1153 15.7171 29.1664 15.4566 29.1654 15.1937C29.1654 14.6625 28.956 14.1593 28.5779 13.7812ZM16.7497 25.125H13.2497V18.75H16.7497V25.125ZM23.5591 14.9468V25.125H18.7497V18C18.7497 17.3093 18.1904 16.75 17.4997 16.75H12.4997C11.8091 16.75 11.2497 17.3093 11.2497 18V25.125H6.44036V14.9468H3.44036L15.0029 3.39371L15.7247 4.11558L26.5622 14.9468H23.5591Z" fill="#000000"/>
</svg>
