<svg width="24" height="25" viewBox="0 0 24 25" fill="none" xmlns="http://www.w3.org/2000/svg">
<path d="M8 0.333496L5.33333 3.00016L2.66667 5.66683L5.33333 8.3335L8 11.0002L8.93333 10.0668L9.86667 9.1335L8.13333 7.40016L6.4 5.66683L8.13333 3.9335L9.86667 2.20016L8.93333 1.26683L8 0.333496ZM16 0.333496L15.0667 1.26683L14.1333 2.20016L15.8667 3.9335L17.6 5.66683L15.8667 7.40016L14.1333 9.1335L15.0667 10.0668L16 11.0002L18.6667 8.3335L21.3333 5.66683L18.6667 3.00016L16 0.333496ZM23.9693 20.4535L23.452 18.4108C23.4189 18.2806 23.3598 18.1584 23.2782 18.0516C23.1966 17.9449 23.0943 17.8557 22.9773 17.7895C22.8598 17.7223 22.7301 17.6792 22.5957 17.6627C22.4613 17.6462 22.325 17.6567 22.1947 17.6935L16.1253 19.4055L12 17.6668L17.22 16.3295C17.5764 16.0116 17.8345 15.5985 17.964 15.1388L17.5547 13.6668L6.66667 15.0002H0V23.0002H6.66667L12.6067 24.2855C12.9296 24.3149 13.2548 24.3073 13.576 24.2628L23.256 21.6575C23.5099 21.5895 23.7272 21.4249 23.8613 21.1988C23.9276 21.0876 23.9712 20.9644 23.9897 20.8363C24.0083 20.7081 24.0013 20.5776 23.9693 20.4522V20.4535ZM4 21.6668H1.33333V16.3335H4V21.6668ZM13.2293 22.9762C13.1692 22.9918 13.1074 22.9999 13.0453 23.0002C12.9938 23.0004 12.9424 22.995 12.892 22.9842L6.66667 21.6175V16.3602L16.4387 15.1495L9.33333 17.6668L15.628 20.6428L16.0507 20.8122L16.488 20.6882L22.2427 19.0655L22.5947 20.4548L13.2293 22.9762Z" fill="#22B573"/>
</svg>
